<?xml version="1.0" encoding="UTF-8"?>
<svg id="Security_Networking" data-name="Security Networking" xmlns="http://www.w3.org/2000/svg" viewBox="0 0 192 192">
  <defs>
    <style>
      .cls-1 {
        fill: #fff;
      }
    </style>
  </defs>
  <path class="cls-1" d="M123.75,63.06h-43.54c-.49,0-.97.18-1.33.51l-11.13,9.95c-.42.38-.67.92-.67,1.49v44.71c0,1.1.9,2,2,2h54.66c1.1,0,2-.9,2-2v-54.66c0-1.1-.9-2-2-2ZM121.75,117.72h-50.66v-41.82l9.89-8.84h40.77v50.66Z"/>
  <path class="cls-1" d="M143.63,62.1c1.1,0,2-.9,2-2s-.9-2-2-2h-7.36v-3.55c0-1.1-.9-2-2-2h-3.53v-7.36c0-1.1-.9-2-2-2s-2,.9-2,2v7.36h-12.16v-7.36c0-1.1-.9-2-2-2s-2,.9-2,2v7.36h-12.16v-7.36c0-1.1-.9-2-2-2s-2,.9-2,2v7.36h-12.16v-7.36c0-1.1-.9-2-2-2s-2,.9-2,2v7.36h-12.16v-7.36c0-1.1-.9-2-2-2s-2,.9-2,2v7.36h-3.53c-1.1,0-2,.9-2,2v3.55h-7.46c-1.1,0-2,.9-2,2s.9,2,2,2h7.46v12.16h-7.46c-1.1,0-2,.9-2,2s.9,2,2,2h7.46v12.16h-7.46c-1.1,0-2,.9-2,2s.9,2,2,2h7.46v12.16h-7.46c-1.1,0-2,.9-2,2s.9,2,2,2h7.46v12.16h-7.46c-1.1,0-2,.9-2,2s.9,2,2,2h7.46v3.52c0,1.1.9,2,2,2h3.53v7.36c0,1.1.9,2,2,2s2-.9,2-2v-7.36h12.16v7.36c0,1.1.9,2,2,2s2-.9,2-2v-7.36h12.16v7.36c0,1.1.9,2,2,2s2-.9,2-2v-7.36h12.16v7.36c0,1.1.9,2,2,2s2-.9,2-2v-7.36h12.16v7.36c0,1.1.9,2,2,2s2-.9,2-2v-7.36h3.53c1.1,0,2-.9,2-2v-3.52h7.36c1.1,0,2-.9,2-2s-.9-2-2-2h-7.36v-12.16h7.36c1.1,0,2-.9,2-2s-.9-2-2-2h-7.36v-12.16h7.36c1.1,0,2-.9,2-2s-.9-2-2-2h-7.36v-12.16h7.36c1.1,0,2-.9,2-2s-.9-2-2-2h-7.36v-12.16h7.36ZM132.26,128.23H60.57V56.54h71.69v71.69Z"/>
  <path class="cls-1" d="M79.96,107.62c1.19,0,2.24-.76,2.62-1.89l1.88-5.62h11.45l1.89,5.63c.38,1.12,1.43,1.88,2.62,1.88h0c1.91,0,3.24-1.88,2.6-3.68l-8.31-23.56c-.68-1.92-2.5-3.21-4.54-3.21h0c-2.04,0-3.86,1.29-4.54,3.21l-8.29,23.56c-.63,1.8.7,3.68,2.6,3.68ZM90.07,83.41h.24l4.12,12.27h-8.48l4.12-12.27Z"/>
  <path class="cls-1" d="M110.35,107.62c1.52,0,2.76-1.24,2.76-2.76v-24.94c0-1.52-1.23-2.76-2.76-2.76s-2.76,1.23-2.76,2.76v24.94c0,1.52,1.24,2.76,2.76,2.76Z"/>
  <path class="cls-1" d="M158.86,31.57l-3.72-.29c-19.71-1.57-39.1-7.71-56.06-17.75l-2.06-1.22c-.63-.37-1.41-.37-2.04,0l-2.06,1.22c-17.21,10.19-36.08,16.16-56.06,17.75l-3.72.29c-1.04.08-1.84.95-1.84,1.99v75.88c0,14.13,5.28,28.57,14.13,38.62,10.27,11.67,22.55,18.65,47.96,30.87l1.75.84c.27.13.57.2.87.2s.59-.07.87-.2l1.75-.84c25.41-12.22,37.69-19.21,47.95-30.87,8.85-10.04,14.13-24.48,14.13-38.62V33.57c0-1.04-.8-1.91-1.84-1.99ZM156.7,109.44c0,13.19-4.91,26.64-13.14,35.98-9.8,11.14-21.79,17.94-46.69,29.91l-.88.43-.89-.43c-24.9-11.97-36.89-18.77-46.69-29.91-8.22-9.34-13.13-22.79-13.13-35.98V35.42l1.88-.15c20.6-1.64,40.04-7.8,57.79-18.3l1.04-.62,1.04.62c17.49,10.35,37.47,16.68,57.79,18.3l1.87.15v74.03Z"/>
</svg>